<svg xmlns="http://www.w3.org/2000/svg" width="800" height="800" viewBox="0 0 800 800"><defs><radialGradient id="nodeGlow" cx="50%" cy="50%" r="50%"><stop offset="0%" stop-color="#06b6d4" stop-opacity="0.6"/><stop offset="100%" stop-color="#06b6d4" stop-opacity="0"/></radialGradient><linearGradient id="lineGrad" x1="0%" x2="100%" y1="0%" y2="100%"><stop offset="0%" stop-color="#06b6d4" stop-opacity="0.15"/><stop offset="100%" stop-color="#8b5cf6" stop-opacity="0.08"/></linearGradient></defs><pattern id="grid" width="80" height="80" patternUnits="userSpaceOnUse"><path fill="none" stroke="rgba(6,182,212,0.04)" d="M 80 0 L 0 0 0 80"/></pattern><path fill="url(#grid)" d="M0 0H800V800H0z"/><path stroke="url(#lineGrad)" d="M0 160 200 160"/><path stroke="url(#lineGrad)" d="M240 160 560 160"/><path stroke="url(#lineGrad)" d="M600 160 800 160"/><path stroke="url(#lineGrad)" d="M100 320 400 320"/><path stroke="url(#lineGrad)" d="M440 320 700 320"/><path stroke="url(#lineGrad)" d="M0 480 300 480"/><path stroke="url(#lineGrad)" d="M340 480 800 480"/><path stroke="url(#lineGrad)" d="M150 640 650 640"/><path stroke="url(#lineGrad)" d="M160 0 160 240"/><path stroke="url(#lineGrad)" d="M160 280 160 800"/><path stroke="url(#lineGrad)" d="M400 80 400 400"/><path stroke="url(#lineGrad)" d="M400 440 400 720"/><path stroke="url(#lineGrad)" d="M640 0 640 560"/><path stroke="url(#lineGrad)" d="M640 600 640 800"/><path fill="none" stroke="url(#lineGrad)" d="M 200 160 Q 240 160 240 200"/><path fill="none" stroke="url(#lineGrad)" d="M 560 160 Q 600 160 600 200"/><path fill="none" stroke="url(#lineGrad)" d="M 400 320 Q 440 320 440 360"/><path fill="none" stroke="url(#lineGrad)" d="M 300 480 Q 340 480 340 440"/><path fill="none" stroke="url(#lineGrad)" d="M 240 200 L 240 320"/><path fill="none" stroke="url(#lineGrad)" d="M 600 200 L 600 320"/><circle cx="160" cy="160" r="4" fill="#06b6d4" opacity="0.5"/><circle cx="160" cy="160" r="8" fill="url(#nodeGlow)"/><circle cx="400" cy="160" r="3" fill="#06b6d4" opacity="0.4"/><circle cx="400" cy="160" r="6" fill="url(#nodeGlow)"/><circle cx="640" cy="160" r="4" fill="#06b6d4" opacity="0.5"/><circle cx="640" cy="160" r="8" fill="url(#nodeGlow)"/><circle cx="240" cy="320" r="3" fill="#8b5cf6" opacity="0.4"/><circle cx="240" cy="320" r="6" fill="url(#nodeGlow)"/><circle cx="400" cy="320" r="5" fill="#06b6d4" opacity="0.6"/><circle cx="400" cy="320" r="10" fill="url(#nodeGlow)"/><circle cx="640" cy="320" r="3" fill="#8b5cf6" opacity="0.4"/><circle cx="640" cy="320" r="6" fill="url(#nodeGlow)"/><circle cx="160" cy="480" r="4" fill="#06b6d4" opacity="0.5"/><circle cx="160" cy="480" r="8" fill="url(#nodeGlow)"/><circle cx="400" cy="480" r="3" fill="#8b5cf6" opacity="0.3"/><circle cx="400" cy="480" r="6" fill="url(#nodeGlow)"/><circle cx="640" cy="480" r="4" fill="#06b6d4" opacity="0.5"/><circle cx="640" cy="480" r="8" fill="url(#nodeGlow)"/><circle cx="160" cy="640" r="3" fill="#8b5cf6" opacity="0.3"/><circle cx="400" cy="640" r="5" fill="#06b6d4" opacity="0.5"/><circle cx="400" cy="640" r="10" fill="url(#nodeGlow)"/><circle cx="640" cy="640" r="3" fill="#8b5cf6" opacity="0.3"/><rect width="30" height="30" x="385" y="305" fill="none" stroke="rgba(6,182,212,0.2)" rx="3"/><rect width="22" height="22" x="389" y="309" fill="rgba(6,182,212,0.03)" rx="2"/><rect width="30" height="30" x="145" y="145" fill="none" stroke="rgba(139,92,246,0.15)" rx="3"/><rect width="22" height="22" x="149" y="149" fill="rgba(139,92,246,0.03)" rx="2"/><rect width="30" height="30" x="625" y="465" fill="none" stroke="rgba(6,182,212,0.2)" rx="3"/><rect width="22" height="22" x="629" y="469" fill="rgba(6,182,212,0.03)" rx="2"/><circle cx="80" cy="160" r="1.5" fill="#06b6d4" opacity="0.8"><animate attributeName="cx" dur="4s" repeatCount="indefinite" values="0;200"/><animate attributeName="opacity" dur="4s" repeatCount="indefinite" values="0.8;0.2;0.8"/></circle><circle cx="500" cy="320" r="1.5" fill="#8b5cf6" opacity="0.8"><animate attributeName="cx" dur="5s" repeatCount="indefinite" values="440;700"/><animate attributeName="opacity" dur="5s" repeatCount="indefinite" values="0.8;0.2;0.8"/></circle><circle cx="160" cy="300" r="1.5" fill="#06b6d4" opacity="0.8"><animate attributeName="cy" dur="6s" repeatCount="indefinite" values="280;480"/><animate attributeName="opacity" dur="6s" repeatCount="indefinite" values="0.6;0.1;0.6"/></circle><circle cx="640" cy="200" r="1.5" fill="#8b5cf6" opacity="0.6"><animate attributeName="cy" dur="8s" repeatCount="indefinite" values="0;560"/><animate attributeName="opacity" dur="8s" repeatCount="indefinite" values="0.6;0.1;0.6"/></circle></svg>